# xmcd
#
# Track frame offsets:
#	150
#	22607
#	43187
#	63362
#	85551
#	106102
#
# Disc length: 1681 seconds
#
# Revision: 2003987052
# Processed by: cddbd v1.5.2PL0 Copyright (c) Steve Scherf et al.
# Submitted via: EZCDAudioConverter 8.0.2.1
#
DISCID=37068f06
DTITLE=Phan Đình Tùng, Thái Ngọc Bích - Định Mệnh Anh Và Em (Single)
DYEAR=2012
DGENRE=World Pop
TTITLE0=Phan Đình Tùng, Thái Ngọc Bích - Định Mệnh Anh Và Em (Pop Ballad Versi
TTITLE0=on)
TTITLE1=Phan Đình Tùng, Thái Ngọc Bích - Định Mệnh Anh Và Em (Semi Classic Ver
TTITLE1=sion)
TTITLE2=Phan Đình Tùng, Thái Ngọc Bích - Định Mệnh Anh Và Em (R&B Dance Versio
TTITLE2=n)
TTITLE3=Soundtrack - Định Mệnh Anh Và Em (Pop Ballad Version Karaoke)
TTITLE4=Soundtrack - Định Mệnh Anh Và Em (Semi Classic Version Karaoke)
TTITLE5=Soundtrack - Định Mệnh Anh Và Em (R&B Dance Version Karaoke)
EXTD=
EXTT0=
EXTT1=
EXTT2=
EXTT3=
EXTT4=
EXTT5=
PLAYORDER=
